<svg xmlns="http://www.w3.org/2000/svg" height="60px" width="60px" xmlns:xlink="http://www.w3.org/1999/xlink" viewBox="0 0 60 60">
<g fill-rule="evenodd" fill="none">
<g transform="translate(-610 -1959)">
<g transform="translate(77 1959)">
<g transform="translate(431)">
<g transform="translate(102)">
<path fill="#398FD1" d="m0 3.7533v52.494c0 2.073 1.6674 3.753 3.7533 3.753h52.494c2.073 0 3.753-1.667 3.753-3.753v-52.494c0-2.0726-1.667-3.753-3.753-3.753h-52.494c-2.0726 0-3.753 1.6674-3.753 3.7533zm56.247-0.0033c0.008 0 0.003 52.497 0.003 52.497 0 0.008-52.497 0.003-52.497 0.003-0.008 0-0.003-52.497-0.003-52.497 0-0.008 52.497-0.003 52.497-0.003z"/>
<path fill="#434343" d="m35.592 7.5282h11.674 3.326c1.036 0 1.875 0.8394 1.875 1.875v15c0 1.036-0.839 1.875-1.875 1.875-1.035 0-1.875-0.839-1.875-1.875v-10.535l-13.455 13.456c-0.738 0.738-1.928 0.74-2.66 0.008-0.737-0.737-0.728-1.923 0.008-2.66l13.395-13.394h-10.413c-1.035 0-1.875-0.839-1.875-1.8748 0-1.0356 0.84-1.875 1.875-1.875zm-11.184 44.933h-11.674-3.3265c-1.0355 0-1.875-0.84-1.875-1.875v-15c0-1.036 0.8395-1.875 1.875-1.875s1.8755 0.839 1.8755 1.875v10.535l13.455-13.456c0.738-0.738 1.928-0.74 2.66-0.008 0.737 0.737 0.728 1.923-0.008 2.66l-13.395 13.394h10.413c1.035 0 1.875 0.839 1.875 1.875 0 1.035-0.84 1.875-1.875 1.875z"/>
</g>
</g>
</g>
</g>
</g>
</svg>
