<svg xmlns="http://www.w3.org/2000/svg" height="59px" width="49px" xmlns:xlink="http://www.w3.org/1999/xlink" viewBox="0 0 49 59">
<g fill-rule="evenodd" fill="none">
<g transform="translate(-1040 -1960)">
<g transform="translate(77 1959)">
<g transform="translate(885)">
<g transform="translate(73)">
<path fill="#398FD1" d="m31.875 56.25h9.362c1.044 0 1.888 0.839 1.888 1.875 0 1.043-0.845 1.875-1.888 1.875h-22.474c-1.044 0-1.888-0.839-1.888-1.875 0-1.043 0.845-1.875 1.888-1.875h9.362v-10.313c-6.405-0.024-12.439-2.343-17.075-6.438-2.4157-2.134-4.3895-4.7-5.8015-7.556-0.4589-0.928-0.0785-2.053 0.8498-2.512 0.9282-0.458 2.0528-0.078 2.5118 0.85 1.1949 2.417 2.8689 4.594 4.9229 6.408 3.977 3.513 9.17 5.499 14.692 5.499 11.999 0 21.697-9.335 21.697-20.813 0-6.754-3.377-12.97-8.981-16.865-0.85-0.591-1.06-1.7595-0.469-2.6097 0.591-0.8503 1.76-1.0604 2.61-0.4693 6.594 4.5839 10.59 11.939 10.59 19.944 0 12.383-9.484 22.604-21.797 24.312v10.563z"/>
<path fill="#434343" d="m45 20.625c0-9.32-7.555-16.875-16.875-16.875s-16.875 7.555-16.875 16.875 7.555 16.875 16.875 16.875 16.875-7.555 16.875-16.875zm-30 0c0-7.249 5.876-13.125 13.125-13.125s13.125 5.876 13.125 13.125-5.876 13.125-13.125 13.125-13.125-5.876-13.125-13.125z"/>
</g>
</g>
</g>
</g>
</g>
</svg>
