<svg xmlns="http://www.w3.org/2000/svg" height="55px" width="60px" xmlns:xlink="http://www.w3.org/1999/xlink" viewBox="0 0 60 55">
<g fill-rule="evenodd" fill="none">
<g transform="translate(-1035 -2189)">
<g transform="translate(77 1959)">
<g transform="translate(846 230)">
<g transform="translate(112)">
<g fill="#398FD1">
<path d="m13.333 3.3969v47.509c0 1.876 1.497 3.397 3.318 3.397h26.698c1.832 0 3.318-1.509 3.318-3.397v-47.509c0-1.8762-1.497-3.397-3.318-3.397h-26.698c-1.832 0-3.318 1.5091-3.318 3.3969zm30.016-0.003c-0.019 0-0.016 47.512-0.016 47.512 0 0.012-26.682 0.003-26.682 0.003 0.019 0 0.016-47.512 0.016-47.512 0-0.0118 26.682-0.0031 26.682-0.0031z"/>
<path d="m0.015341 50.909c0 1.876 1.4971 3.397 3.318 3.397h13.334v-3.397-30.542c0-1.876-1.497-3.397-3.318-3.397h-10.031c-1.8325 0-3.318 1.509-3.318 3.397l0.015341 30.542zm13.318-30.546c-0.007 0-0.005 30.542-0.005 30.542 0 0.008-10.01 0.002-10.01 0.002 0.0069 0 0.0057-30.543 0.0057-30.543 0-0.007 10.009-0.001 10.009-0.001z"/>
<path d="m43.349 50.909c0 1.876 1.497 3.397 3.318 3.397h13.333v-3.397-30.542c0-1.876-1.497-3.397-3.318-3.397h-10.031c-1.832 0-3.318 1.509-3.318 3.397l0.016 30.542zm13.318-30.546c-0.007 0-0.006 30.542-0.006 30.542 0 0.008-10.01 0.002-10.01 0.002 0.007 0 0.006-30.543 0.006-30.543 0-0.007 10.01-0.001 10.01-0.001z" transform="translate(51.667 35.638) scale(-1 1) translate(-51.667 -35.638)"/>
</g>
<g fill="#221E1F">
<path d="m23.333 18.667c-0.92 0-1.666 0.765-1.666 1.681v6.819c0 0.929 0.739 1.681 1.666 1.681 0.921 0 1.667-0.765 1.667-1.681v-6.819c0-0.929-0.74-1.681-1.667-1.681zm6.667 0c-0.92 0-1.667 0.765-1.667 1.681v6.819c0 0.929 0.74 1.681 1.667 1.681 0.92 0 1.667-0.765 1.667-1.681v-6.819c0-0.929-0.74-1.681-1.667-1.681zm6.667 0c-0.921 0-1.667 0.765-1.667 1.681v6.819c0 0.929 0.74 1.681 1.667 1.681 0.92 0 1.666-0.765 1.666-1.681v-6.819c0-0.929-0.739-1.681-1.666-1.681z"/>
<path d="m23.333 6.7879c-0.92 0-1.666 0.7653-1.666 1.6813v6.8188c0 0.929 0.739 1.682 1.666 1.682 0.921 0 1.667-0.766 1.667-1.682v-6.8188c0-0.9286-0.74-1.6813-1.667-1.6813zm6.667 0c-0.92 0-1.667 0.7653-1.667 1.6813v6.8188c0 0.929 0.74 1.682 1.667 1.682 0.92 0 1.667-0.766 1.667-1.682v-6.8188c0-0.9286-0.74-1.6813-1.667-1.6813zm6.667 0c-0.921 0-1.667 0.7653-1.667 1.6813v6.8188c0 0.929 0.74 1.682 1.667 1.682 0.92 0 1.666-0.766 1.666-1.682v-6.8188c0-0.9286-0.739-1.6813-1.666-1.6813z"/>
<path d="m23.333 30.545c-0.92 0-1.666 0.766-1.666 1.682v6.819c0 0.929 0.739 1.681 1.666 1.681 0.921 0 1.667-0.765 1.667-1.681v-6.819c0-0.929-0.74-1.682-1.667-1.682zm6.667 0c-0.92 0-1.667 0.766-1.667 1.682v6.819c0 0.929 0.74 1.681 1.667 1.681 0.92 0 1.667-0.765 1.667-1.681v-6.819c0-0.929-0.74-1.682-1.667-1.682zm6.667 0c-0.921 0-1.667 0.766-1.667 1.682v6.819c0 0.929 0.74 1.681 1.667 1.681 0.92 0 1.666-0.765 1.666-1.681v-6.819c0-0.929-0.739-1.682-1.666-1.682z"/>
<path d="m28.333 44.106v6.819h3.334v-6.819c0-0.929-0.74-1.682-1.667-1.682-0.92 0-1.667 0.766-1.667 1.682z"/>
</g>
</g>
</g>
</g>
</g>
</g>
</svg>
